<?xml version="1.0" encoding="utf-8"?>
<!-- Generator: Adobe Illustrator 22.0.0, SVG Export Plug-In . SVG Version: 6.00 Build 0)  -->
<svg version="1.1" id="Layer_1" xmlns="http://www.w3.org/2000/svg" xmlns:xlink="http://www.w3.org/1999/xlink" x="0px" y="0px"
	 viewBox="0 0 496 496" style="enable-background:new 0 0 496 496;" xml:space="preserve">
<style type="text/css">
	.st0{fill:url(#SVGID_1_);}
	.st1{fill:#868A97;}
</style>
<linearGradient id="SVGID_1_" gradientUnits="userSpaceOnUse" x1="160" y1="208" x2="320" y2="208">
	<stop  offset="0" style="stop-color:#ED0000"/>
	<stop  offset="1" style="stop-color:#F15151"/>
</linearGradient>
<path class="st0" d="M240,128c-44.1,0-80,35.9-80,80s35.9,80,80,80s80-35.9,80-80S284.1,128,240,128z M240,160c13.3,0,24,10.7,24,24
	s-10.7,24-24,24s-24-10.7-24-24S226.7,160,240,160z M272,272h-64v-24c0-17.7,14.3-32,32-32s32,14.3,32,32V272z"/>
<g>
	<path class="st1" d="M424,216c-13.2,0-24,10.8-24,24s10.8,24,24,24s24-10.8,24-24S437.2,216,424,216z M424,248c-4.4,0-8-3.6-8-8
		s3.6-8,8-8s8,3.6,8,8S428.4,248,424,248z"/>
	<path class="st1" d="M180,352h32c11,0,20-9,20-20s-9-20-20-20h-32c-11,0-20,9-20,20S169,352,180,352z M180,328h32c2.2,0,4,1.8,4,4
		s-1.8,4-4,4h-32c-2.2,0-4-1.8-4-4S177.8,328,180,328z"/>
	<path class="st1" d="M248,332c0,11,9,20,20,20h32c11,0,20-9,20-20s-9-20-20-20h-32C257,312,248,321,248,332z M304,332
		c0,2.2-1.8,4-4,4h-32c-2.2,0-4-1.8-4-4s1.8-4,4-4h32C302.2,328,304,329.8,304,332z"/>
	<path class="st1" d="M216,248c0-13.2,10.8-24,24-24s24,10.8,24,24v24h16v-24c0-16.3-9.8-30.3-23.9-36.5
		c9.4-5.6,15.9-15.7,15.9-27.5c0-17.6-14.4-32-32-32s-32,14.4-32,32c0,11.7,6.4,21.9,15.9,27.5c-14,6.2-23.9,20.2-23.9,36.5v24h16
		V248z M240,168c8.8,0,16,7.2,16,16s-7.2,16-16,16s-16-7.2-16-16S231.2,168,240,168z"/>
	<path class="st1" d="M496,76c0-41.9-34.1-76-76-76h-56c-41.9,0-76,34.1-76,76c0,6.9,1,13.6,2.7,20H56c-13.2,0-24,10.8-24,24v96H16
		v81.5C6.7,300.8,0,309.6,0,320v80c0,10.4,6.7,19.2,16,22.5V496h80v-73.5c9.3-3.3,16-12.1,16-22.5v-16h24v88c0,13.2,10.8,24,24,24
		h200h16h64c13.2,0,24-10.8,24-24v-40c0-17.6-14.4-32-32-32h-8v64h8c5.9,0,11.3-1.7,16-4.4V472c0,4.4-3.6,8-8,8h-41.5
		c0.9-2.5,1.5-5.2,1.5-8v-40c0-17.6-14.4-32-32-32h-8v64h8c5.9,0,11.3-1.7,16-4.4V472c0,4.4-3.6,8-8,8h-16H160c-4.4,0-8-3.6-8-8v-88
		h288c13.2,0,24-10.8,24-24V137.9C483.3,124.1,496,101.5,496,76z M440,445.8v-27.7c4.8,2.8,8,7.9,8,13.8S444.8,443.1,440,445.8z
		 M376,445.8v-27.7c4.8,2.8,8,7.9,8,13.8S380.8,443.1,376,445.8z M364,16h56c33.1,0,60,26.9,60,60s-26.9,60-60,60h-20h-16h-14.4
		L344,153.1v-20.3l-4.7-2.1C317.9,120.9,304,99.5,304,76C304,42.9,330.9,16,364,16z M48,120c0-4.4,3.6-8,8-8h24v104H48V120z M32,232
		h48v64H32V232z M80,480H32v-56h48V480z M96,360v40c0,4.4-3.6,8-8,8H24c-4.4,0-8-3.6-8-8v-40v-40c0-4.4,3.6-8,8-8h64
		c4.4,0,8,3.6,8,8V360z M96,297.5V216V112h201.3c7,12.9,17.5,23.7,30.7,30.9V183l46.4-30.9h9.6v216H112v-48
		C112,309.6,105.3,300.8,96,297.5z M448,240v120c0,4.4-3.6,8-8,8h-40V240v-88h20c9.9,0,19.3-2,28-5.4V240z"/>
	<path class="st1" d="M56,320c-22.1,0-40,17.9-40,40s17.9,40,40,40s40-17.9,40-40S78.1,320,56,320z M56,384c-13.2,0-24-10.8-24-24
		s10.8-24,24-24s24,10.8,24,24S69.2,384,56,384z"/>
	<rect x="336" y="48" class="st1" width="112" height="16"/>
	<rect x="336" y="88" class="st1" width="112" height="16"/>
</g>
</svg>
